<?xml version="1.0" encoding="utf-8"?><svg xmlns="http://www.w3.org/2000/svg" xmlns:xlink="http://www.w3.org/1999/xlink"><symbol fill="none" viewBox="0 0 19 15" id="arrowDown" xmlns="http://www.w3.org/2000/svg"><g filter="url(#afilter0_d_0_29)"><path fill-rule="evenodd" clip-rule="evenodd" d="M14.876 1.233l-4.562 5.146a.406.406 0 01-.317.122.405.405 0 01-.317-.122L5.118 1.233a.443.443 0 010-.612.41.41 0 01.592 0l4.287 4.836L14.284.621a.41.41 0 01.592 0 .443.443 0 010 .612z" fill="#fff"/></g><defs><filter id="afilter0_d_0_29" x=".995" y=".495" width="18.004" height="14.007" filterUnits="userSpaceOnUse" color-interpolation-filters="sRGB"><feFlood flood-opacity="0" result="BackgroundImageFix"/><feColorMatrix in="SourceAlpha" values="0 0 0 0 0 0 0 0 0 0 0 0 0 0 0 0 0 0 127 0" result="hardAlpha"/><feOffset dy="4"/><feGaussianBlur stdDeviation="2"/><feComposite in2="hardAlpha" operator="out"/><feColorMatrix values="0 0 0 0 0 0 0 0 0 0 0 0 0 0 0 0 0 0 0.25 0"/><feBlend in2="BackgroundImageFix" result="effect1_dropShadow_0_29"/><feBlend in="SourceGraphic" in2="effect1_dropShadow_0_29" result="shape"/></filter></defs></symbol><symbol fill="none" viewBox="0 0 16 17" id="balloon" xmlns="http://www.w3.org/2000/svg"><path opacity=".5" fill-rule="evenodd" clip-rule="evenodd" d="M8 14.5c-.512 0-1.01-.046-1.495-.127L3 16.5v-3.54C1.173 11.677 0 9.71 0 7.5c0-3.866 3.582-7 8-7s8 3.134 8 7-3.582 7-8 7zm0-13c-3.866 0-7 2.686-7 6 0 2.033 1.183 3.827 2.988 4.912l-.032 2.32 2.354-1.415A8.095 8.095 0 008 13.5c3.866 0 7-2.686 7-6s-3.134-6-7-6zM11.5 7h-7a.5.5 0 010-1h7a.5.5 0 110 1zm-6 2h5a.5.5 0 110 1h-5a.5.5 0 110-1z" fill="#fff"/></symbol><symbol fill="none" viewBox="0 0 6 13" id="facebook" xmlns="http://www.w3.org/2000/svg"><path opacity=".5" fill-rule="evenodd" clip-rule="evenodd" d="M1.494 12.483h2.18V6.431h1.522l.162-2.026H3.675V3.251c0-.478.086-.667.503-.667h1.18V.482h-1.51c-1.623 0-2.354.791-2.354 2.307v1.616H.36v2.052h1.134v6.026z" fill="#000"/></symbol><symbol fill="none" viewBox="0 0 19 15" id="iconArrowMenu" xmlns="http://www.w3.org/2000/svg"><g filter="url(#dfilter0_d_0_29)"><path fill-rule="evenodd" clip-rule="evenodd" d="M14.876 1.233l-4.562 5.146a.406.406 0 01-.317.122.405.405 0 01-.317-.122L5.118 1.233a.443.443 0 010-.612.41.41 0 01.592 0l4.287 4.836L14.284.621a.41.41 0 01.592 0 .443.443 0 010 .612z" fill="#fff"/></g><defs><filter id="dfilter0_d_0_29" x=".995" y=".495" width="18.004" height="14.007" filterUnits="userSpaceOnUse" color-interpolation-filters="sRGB"><feFlood flood-opacity="0" result="BackgroundImageFix"/><feColorMatrix in="SourceAlpha" values="0 0 0 0 0 0 0 0 0 0 0 0 0 0 0 0 0 0 127 0" result="hardAlpha"/><feOffset dy="4"/><feGaussianBlur stdDeviation="2"/><feComposite in2="hardAlpha" operator="out"/><feColorMatrix values="0 0 0 0 0 0 0 0 0 0 0 0 0 0 0 0 0 0 0.25 0"/><feBlend in2="BackgroundImageFix" result="effect1_dropShadow_0_29"/><feBlend in="SourceGraphic" in2="effect1_dropShadow_0_29" result="shape"/></filter></defs></symbol><symbol fill="none" viewBox="0 0 14 14" id="iconBell" xmlns="http://www.w3.org/2000/svg"><path opacity=".4" fill-rule="evenodd" clip-rule="evenodd" d="M9.275 12.133A2.325 2.325 0 017 14a2.325 2.325 0 01-2.275-1.867H.5L2.357 8.4V4.667C2.357 2.089 4.436 0 7 0c2.564 0 4.643 2.09 4.643 4.667V8.4l1.857 3.733H9.275zM7 13.067a1.39 1.39 0 001.308-.934H5.692A1.39 1.39 0 007 13.067zM10.714 8.4V4.667C10.714 2.605 9.051.933 7 .933S3.286 2.605 3.286 4.667V8.4l-1.393 2.8h10.214l-1.393-2.8z" fill="#000"/></symbol><symbol fill="none" viewBox="0 0 6 17" id="iconMenu" xmlns="http://www.w3.org/2000/svg"><g opacity=".3" fill-rule="evenodd" clip-rule="evenodd" fill="#000"><path d="M3.25 7a1.75 1.75 0 110 3.5 1.75 1.75 0 010-3.5zM3.25 1a1.75 1.75 0 110 3.5 1.75 1.75 0 010-3.5zM3.25 13a1.75 1.75 0 110 3.5 1.75 1.75 0 010-3.5z"/></g></symbol><symbol fill="none" viewBox="0 0 10 14" id="iconPeople" xmlns="http://www.w3.org/2000/svg"><path opacity=".4" fill-rule="evenodd" clip-rule="evenodd" d="M7.409 13.5H3.091C1.66 13.5.5 12.409.5 11.062V9.438c0-1.068.734-1.965 1.749-2.295a4.158 4.158 0 01-.885-2.58C1.364 2.319 3.104.5 5.25.5s3.886 1.819 3.886 4.063c0 .98-.332 1.878-.885 2.58C9.266 7.473 10 8.37 10 9.438v1.624C10 12.41 8.84 13.5 7.409 13.5zm.864-8.937c0-1.795-1.354-3.25-3.023-3.25-1.67 0-3.023 1.455-3.023 3.25 0 1.794 1.354 3.25 3.023 3.25 1.67 0 3.023-1.456 3.023-3.25zm.863 5.078c0-.864-.696-1.583-1.63-1.775a3.751 3.751 0 01-2.256.759c-.842 0-1.62-.283-2.256-.759-.934.192-1.63.911-1.63 1.775v1.218c0 1.01.949 1.829 2.12 1.829h3.533c1.17 0 2.12-.819 2.12-1.829V9.641z" fill="#000"/></symbol><symbol fill="none" viewBox="0 0 12 12" id="in" xmlns="http://www.w3.org/2000/svg"><path opacity=".5" fill-rule="evenodd" clip-rule="evenodd" d="M1.8 3.612c.741 0 1.342-.606 1.342-1.352 0-.747-.601-1.353-1.342-1.353-.742 0-1.343.606-1.343 1.353 0 .746.601 1.352 1.343 1.352zm-1.125 8.29h2.27v-7.33H.675v7.33zM7.957 6.41c-.908 0-1.383.614-1.383 1.645v3.847H4.397v-7.33h2.177v.987s.655-1.21 2.21-1.21 2.668.949 2.668 2.912v4.641H9.193V8.055c0-1.056-.4-1.645-1.236-1.645z" fill="#000"/></symbol><symbol fill="none" viewBox="0 0 12 13" id="instagramm" xmlns="http://www.w3.org/2000/svg"><path opacity=".5" fill-rule="evenodd" clip-rule="evenodd" d="M8.232 4.335a2.882 2.882 0 00-2.096-.912c-.82 0-1.562.35-2.096.912H.395v-1.55c0-.796.38-1.499.96-1.926V3.4h.466V.595c.106-.044.216-.08.329-.108V3.4h.466V.426a1.285 1.285 0 00.053-.001h.269V3.4h.466V.425h6.214c1.256 0 2.274 1.056 2.274 2.36v1.55h-3.66zm1.027-2.923a.372.372 0 00-.365.378v1.304c0 .21.163.379.365.379h1.229c.201 0 .365-.17.365-.379V1.79a.372.372 0 00-.365-.378h-1.23zM7.07 4.335c.203.096.391.223.557.374.474.432.774 1.064.774 1.768 0 1.298-1.016 2.353-2.266 2.353S3.869 7.775 3.869 6.477c0-.704.3-1.336.774-1.768.167-.151.354-.278.558-.374a2.186 2.186 0 011.87 0zM4.468 6.477c0 .96.75 1.739 1.675 1.739s1.675-.779 1.675-1.739c0-.96-.75-1.738-1.675-1.738s-1.675.778-1.675 1.738zm5.15 5.944h-6.95c-1.255 0-2.273-1.057-2.273-2.36V4.708h3.343a3.116 3.116 0 00-.544 1.768c0 1.687 1.317 3.054 2.942 3.054 1.625 0 2.942-1.367 2.942-3.054 0-.66-.202-1.27-.545-1.768h3.36v5.351c0 1.304-1.019 2.36-2.275 2.36z" fill="#000"/></symbol><symbol fill="none" viewBox="0 0 15 14" id="search" xmlns="http://www.w3.org/2000/svg"><path opacity=".5" fill-rule="evenodd" clip-rule="evenodd" d="M14.364 13.866a.458.458 0 01-.64 0l-3.629-3.57A5.92 5.92 0 016.39 11.59C3.137 11.59.5 8.996.5 5.795.5 2.595 3.137 0 6.39 0c3.252 0 5.889 2.595 5.889 5.795A5.716 5.716 0 0110.75 9.68l3.614 3.556a.441.441 0 010 .631zM6.389.892c-2.752 0-4.983 2.195-4.983 4.903 0 2.708 2.23 4.904 4.983 4.904 2.752 0 4.982-2.196 4.982-4.904 0-2.708-2.23-4.903-4.982-4.903z" fill="#000"/></symbol><symbol fill="none" viewBox="0 0 14 15" id="setting" xmlns="http://www.w3.org/2000/svg"><path opacity=".6" fill-rule="evenodd" clip-rule="evenodd" d="M13.537 5.85l-1.084.63c.06.332.1.67.1 1.02s-.04.688-.1 1.02l1.084.63a.938.938 0 01.339 1.275l-.926 1.617a.922.922 0 01-1.264.341l-1.095-.637a5.539 5.539 0 01-1.74 1.029v.792a.93.93 0 01-.925.933H6.074a.93.93 0 01-.925-.933v-.792a5.54 5.54 0 01-1.74-1.03l-1.095.638a.922.922 0 01-1.264-.341l-.926-1.617a.938.938 0 01.34-1.275l1.083-.63a5.63 5.63 0 01-.1-1.02c0-.35.04-.688.1-1.02L.463 5.85a.938.938 0 01-.339-1.275l.926-1.617a.921.921 0 011.264-.341l1.095.637a5.535 5.535 0 011.74-1.029v-.792A.93.93 0 016.074.5h1.852a.93.93 0 01.925.933v.792c.647.231 1.228.59 1.74 1.03l1.095-.638a.921.921 0 011.264.341l.926 1.617a.938.938 0 01-.34 1.275zm-.694-1.213l-.463-.808a.46.46 0 00-.632-.17l-1.286.748a4.611 4.611 0 00-2.536-1.48V1.9a.465.465 0 00-.463-.467h-.926a.465.465 0 00-.463.467v1.027a4.61 4.61 0 00-2.536 1.48l-1.286-.749a.46.46 0 00-.632.171l-.463.808a.469.469 0 00.17.638l1.29.752A4.67 4.67 0 002.373 7.5c0 .517.092 1.01.246 1.474l-1.291.751a.469.469 0 00-.17.638l.463.808c.128.223.411.3.632.17l1.286-.748a4.611 4.611 0 002.536 1.48V13.1c0 .258.208.467.463.467h.926a.465.465 0 00.463-.467v-1.027a4.611 4.611 0 002.536-1.48l1.286.749a.46.46 0 00.632-.171l.463-.808a.469.469 0 00-.17-.638l-1.29-.751c.153-.465.245-.957.245-1.474 0-.516-.092-1.01-.246-1.473l1.291-.752a.469.469 0 00.17-.638zM7 9.833A2.324 2.324 0 014.686 7.5 2.324 2.324 0 017 5.167 2.324 2.324 0 019.314 7.5 2.324 2.324 0 017 9.833zM7 6.1c-.767 0-1.388.627-1.388 1.4 0 .773.621 1.4 1.388 1.4.767 0 1.388-.627 1.388-1.4 0-.773-.621-1.4-1.388-1.4z" fill="#fff"/></symbol><symbol viewBox="0 0 6 6" id="shape" xmlns="http://www.w3.org/2000/svg"><path d="M3 0a3 3 0 110 6 3 3 0 010-6z"/></symbol><symbol fill="none" viewBox="0 0 20 21" id="shapeSocial" xmlns="http://www.w3.org/2000/svg"><path fill-rule="evenodd" clip-rule="evenodd" d="M10 .5c5.523 0 10 4.477 10 10s-4.477 10-10 10-10-4.477-10-10S4.477.5 10 .5z" fill="#E8E8EB"/></symbol><symbol viewBox="0 0 0 0" id="sprite.symbol" xmlns="http://www.w3.org/2000/svg"/><symbol fill="none" viewBox="0 0 13 10" id="twitter" xmlns="http://www.w3.org/2000/svg"><path opacity=".5" fill-rule="evenodd" clip-rule="evenodd" d="M.967 8.976a7.402 7.402 0 003.775 1.02c4.573 0 7.157-3.563 7.001-6.759.481-.32.899-.72 1.229-1.176-.442.18-.917.303-1.415.358a2.32 2.32 0 001.083-1.257c-.476.26-1.003.45-1.564.551A2.56 2.56 0 009.278.996c-1.59 0-2.758 1.368-2.399 2.79-2.047-.095-3.862-1-5.076-2.374-.645 1.021-.335 2.357.762 3.033a2.614 2.614 0 01-1.116-.284c-.026 1.053.791 2.037 1.976 2.257a2.672 2.672 0 01-1.112.039c.313.903 1.223 1.56 2.3 1.578a5.253 5.253 0 01-3.646.94z" fill="#000"/></symbol></svg>